<svg width="600" height="600" viewBox="0 0 600 600" fill="none" xmlns="http://www.w3.org/2000/svg">
<rect width="600" height="600" fill="black"/>
<g clip-path="url(#clip0_46_115)">
<path fill-rule="evenodd" clip-rule="evenodd" d="M413.144 211.23C413.848 211.201 414.434 210.82 414.434 209.824C414.434 208.535 413.584 208.213 412.207 208.213H410.215V213.516H411.562V211.289H411.797L412.969 213.516H414.521L413.144 211.23ZM412.295 210.381H411.533V209.15H412.178C412.559 209.15 413.027 209.209 413.027 209.707C413.027 210.264 412.764 210.381 412.295 210.381ZM397.061 222.539L403.271 206.279H332.871L308.701 235.576L319.863 206.279H296.484L260.156 303.896H283.242L298.74 263.086L299.795 303.896L332.988 303.838C270.088 320.889 210.469 337.031 210.469 337.031C176.748 346.494 138.281 325.869 166.084 270.264C133.887 308.086 103.447 358.477 130.312 381.65C156.357 404.121 188.877 390.82 211.055 381.943C233.232 373.066 478.447 266.572 478.447 266.572C480.82 265.4 480.381 263.906 477.422 264.639C476.924 264.756 429.404 277.646 374.59 292.471L377.314 284.883H350.391L359.238 261.211H381.416L388.242 243.018H366.094L373.711 222.451H397.061V222.539ZM322.705 297.363L321.24 246.475L356.103 208.184L322.705 297.363ZM412.266 205.957C409.395 205.957 407.168 207.949 407.168 210.879C407.168 213.809 409.424 215.801 412.266 215.801C415.107 215.801 417.363 213.809 417.363 210.879C417.393 207.949 415.137 205.957 412.266 205.957ZM412.266 214.395C410.215 214.395 408.721 212.9 408.721 210.879C408.721 208.857 410.215 207.363 412.266 207.363C414.287 207.363 415.811 208.887 415.811 210.879C415.84 212.871 414.287 214.395 412.266 214.395ZM230.01 303.867H205.166L207.979 260.684L191.836 303.867H168.75L205.4 206.25H229.951L227.109 250.02L243.545 206.25H266.631L230.01 303.867ZM232.998 303.867L269.619 206.25H292.705L256.084 303.867H232.998Z" fill="white"/>
</g>
<defs>
<clipPath id="clip0_46_115">
<rect width="360" height="188.086" fill="white" transform="translate(120 205.957)"/>
</clipPath>
</defs>
</svg>
