<svg width="600" height="600" viewBox="0 0 600 600" fill="none" xmlns="http://www.w3.org/2000/svg">
<rect width="600" height="600" fill="#0053E2"/>
<path d="M365.851 284.018C373.369 282.473 439.887 252.056 445.824 248.636C459.38 240.826 464.023 223.528 456.198 210C448.372 196.472 431.039 191.837 417.484 199.648C411.547 203.069 351.893 245.351 346.794 251.077C340.949 257.639 339.939 267.024 344.262 274.496C348.586 281.969 357.235 285.788 365.851 284.018Z" fill="#FFC220"/>
<path d="M445.825 351.364C439.887 347.943 373.37 317.527 365.852 315.982C357.235 314.212 348.586 318.031 344.263 325.504C339.94 332.977 340.95 342.363 346.795 348.924C351.894 354.649 411.548 396.932 417.485 400.353C431.04 408.163 448.373 403.528 456.199 390.001C464.024 376.473 459.38 359.175 445.825 351.364Z" fill="#FFC220"/>
<path d="M300 351.007C291.353 351.007 283.714 356.573 280.943 364.906C278.524 372.176 271.66 444.875 271.66 451.717C271.66 467.337 284.348 480 300 480C315.652 480 328.34 467.337 328.34 451.717C328.34 444.875 321.476 372.176 319.057 364.906C316.285 356.573 308.646 351.007 300 351.007Z" fill="#FFC220"/>
<path d="M234.148 315.982C226.63 317.527 160.112 347.944 154.175 351.364C140.62 359.175 135.976 376.473 143.802 390C151.627 403.528 168.96 408.163 182.515 400.353C188.452 396.931 248.105 354.649 253.205 348.924C259.05 342.361 260.06 332.976 255.736 325.504C251.413 318.031 242.765 314.212 234.148 315.982Z" fill="#FFC220"/>
<path d="M182.516 199.648C168.961 191.837 151.628 196.472 143.802 210C135.976 223.528 140.62 240.826 154.175 248.636C160.112 252.057 226.63 282.473 234.148 284.018C242.764 285.788 251.414 281.969 255.737 274.496C260.06 267.023 259.05 257.638 253.205 251.076C248.106 245.351 188.453 203.068 182.516 199.648Z" fill="#FFC220"/>
<path d="M300 120C284.347 120 271.66 132.663 271.66 148.283C271.66 155.125 278.524 227.824 280.943 235.094C283.715 243.427 291.354 248.993 300 248.993C308.646 248.993 316.285 243.427 319.057 235.094C321.476 227.824 328.34 155.125 328.34 148.283C328.34 132.663 315.652 120 300 120Z" fill="#FFC220"/>
</svg>
